# xmcd
#
# Track frame offsets: 
#        183
#        25093
#        40815
#        58693
#        84108
#        104330
#        123883
#        145583
#
# Disc length: 2191 seconds
#
# Revision: 2
# Processed by: cddbd v1.5.2PL0 Copyright (c) Steve Scherf et al.
# Submitted via: ExactAudioCopyFreeDBPlugin 1.0
#
DISCID=59088d08
DTITLE=John Lee Hooker - Live At Cafe Au Go-Go
DYEAR=1967
DGENRE=Blues
TTITLE0=I'm Bad Like Jesse James
TTITLE1=She's Long She's Tall
TTITLE2=When My First Wife Left Me
TTITLE3=Heartaches And Misery
TTITLE4=One Bourbon, One Scotch and One Beer
TTITLE5=I Don't Want No Trouble
TTITLE6=I'll Never Get Out Of These Blues Alive
TTITLE7=Seven Days
EXTD=YEAR: 1967
EXTT0=
EXTT1=
EXTT2=
EXTT3=
EXTT4=
EXTT5=
EXTT6=
EXTT7=
PLAYORDER=
